<?xml version="1.0" standalone="no"?>
<!DOCTYPE svg PUBLIC "-//W3C//DTD SVG 20010904//EN"
 "http://www.w3.org/TR/2001/REC-SVG-20010904/DTD/svg10.dtd">
<svg version="1.0" xmlns="http://www.w3.org/2000/svg"
 width="400.000000pt" height="400.000000pt" viewBox="0 0 400.000000 400.000000"
 preserveAspectRatio="xMidYMid meet">
<metadata>
Created by potrace 1.14, written by Peter Selinger 2001-2017
</metadata>
<g transform="translate(0.000000,400.000000) scale(0.100000,-0.100000)"
fill="#000000" stroke="none">
<path d="M608 3987 c7 -8 11 -167 12 -467 0 -250 1 -491 2 -535 1 -44 0 -208
-1 -365 0 -157 -1 -382 0 -500 0 -171 -3 -224 -15 -259 -9 -24 -14 -47 -11
-51 2 -4 0 -22 -5 -39 -9 -33 4 -81 22 -81 5 0 7 -4 3 -9 -3 -6 1 -13 8 -18 8
-4 20 -19 27 -33 7 -14 30 -47 50 -75 21 -27 59 -96 85 -152 27 -57 51 -103
55 -103 14 0 21 -67 10 -96 -6 -16 -21 -38 -34 -49 -32 -28 -100 -132 -119
-183 -20 -50 -23 -181 -6 -264 10 -50 9 -62 -16 -134 -29 -87 -46 -111 -67
-98 -13 8 -58 7 -92 -3 -10 -3 -16 -1 -13 4 6 9 -85 8 -110 -2 -9 -3 -23 0
-31 7 -9 7 -13 8 -9 2 4 -7 -14 -10 -54 -10 -32 0 -59 3 -59 7 0 6 -187 1
-208 -6 -6 -2 -12 0 -12 5 0 6 -4 10 -10 10 -6 0 -10 -88 -10 -245 l0 -245
274 0 273 0 6 65 c6 65 22 124 106 385 l46 145 5 -185 c4 -124 7 -155 9 -95 6
177 0 322 -16 432 -14 94 -14 120 -3 171 15 71 50 136 114 211 l46 53 -4 -73
c-5 -69 -4 -70 4 -19 4 30 8 84 9 119 l1 64 45 -42 c28 -25 54 -41 70 -41 29
0 30 -6 10 -80 -8 -30 -14 -62 -14 -70 0 -8 11 23 24 70 26 93 60 179 72 181
34 6 54 5 58 -1 3 -4 -6 -37 -19 -72 -53 -139 -71 -258 -71 -455 1 -100 4
-186 9 -190 4 -4 199 -9 432 -11 l424 -4 0 80 c0 169 37 432 85 595 16 55 18
57 51 57 19 0 34 -2 34 -3 0 -2 -8 -28 -19 -58 -51 -152 -72 -313 -69 -557 2
-178 3 -183 5 -54 2 83 8 142 13 142 6 0 10 10 10 23 0 32 20 97 29 97 12 0
104 -187 98 -197 -3 -5 -11 -80 -17 -168 -6 -88 -13 -161 -15 -163 -3 -3 -20
7 -39 22 -19 14 -37 26 -41 26 -3 0 -18 11 -33 25 -23 22 -25 27 -12 35 12 8
9 10 -12 10 -16 0 -28 -2 -28 -5 0 -3 16 -38 36 -78 48 -96 94 -159 111 -153
20 8 30 -28 38 -137 4 -53 11 -97 16 -97 5 0 6 36 3 83 -12 146 -17 132 46
132 l55 0 5 -104 c3 -58 10 -106 15 -108 6 -2 9 29 7 84 l-3 88 21 -32 c12
-18 24 -57 27 -88 6 -55 23 -78 23 -29 l0 25 24 -28 c44 -51 35 -20 -20 72
-70 117 -152 282 -160 324 l-7 33 41 -7 c48 -8 76 4 114 48 26 31 28 31 105
29 54 -2 89 1 115 12 21 9 40 16 44 16 18 0 -114 -110 -138 -116 -36 -7 -35
-18 0 -33 22 -9 35 -9 65 4 78 32 131 101 167 219 16 49 29 156 19 156 -3 0
-9 -22 -13 -50 -6 -42 -15 -59 -61 -109 -30 -32 -70 -66 -89 -75 -38 -18 -151
-22 -161 -6 -3 5 7 29 23 52 76 111 179 363 194 473 5 39 12 85 14 103 5 35
28 43 42 15 5 -10 20 -66 32 -124 12 -58 25 -111 28 -116 4 -6 23 -13 42 -17
l35 -7 -32 15 c-24 11 -34 24 -43 56 -11 40 -10 45 26 104 21 33 67 94 102
135 81 93 135 201 130 262 l-3 44 -15 -28 c-9 -20 -19 -27 -32 -24 -21 6 -25
-8 -4 -16 17 -7 16 -18 -7 -71 -10 -22 -15 -41 -13 -43 2 -3 -3 -13 -12 -22
-9 -10 -30 -42 -45 -71 -16 -29 -30 -50 -32 -48 -2 2 6 31 19 63 13 33 27 76
30 95 3 19 -5 3 -18 -37 -28 -85 -102 -236 -127 -259 -16 -15 -18 -13 -25 33
-8 51 -7 75 5 83 14 10 111 199 136 265 13 37 30 97 37 133 l13 67 6 -70 5
-70 2 63 c1 34 6 62 10 62 9 0 26 -16 89 -82 23 -24 77 -68 120 -98 176 -120
328 -262 420 -392 30 -43 55 -88 56 -100 1 -13 10 -34 19 -48 59 -88 86 -251
68 -413 -14 -120 -53 -294 -80 -354 -12 -26 -33 -72 -46 -100 l-24 -53 230 0
230 0 0 585 c0 411 -4 585 -11 585 -6 0 -9 6 -6 14 3 8 1 16 -5 18 -6 2 -4 10
6 20 21 22 20 27 -4 21 -11 -3 -20 0 -20 6 0 6 -4 11 -10 11 -14 0 -13 -26 2
-50 10 -16 10 -24 -1 -42 -12 -19 -11 -24 8 -39 13 -10 17 -20 11 -24 -5 -3
-10 -1 -10 6 0 9 -3 9 -14 0 -9 -7 -17 -8 -20 -3 -3 6 -24 12 -45 14 -22 2
-37 0 -35 -4 3 -5 19 -8 36 -8 24 0 28 -3 19 -13 -6 -8 -8 -17 -4 -20 3 -4 0
-7 -8 -7 -8 0 -23 -7 -34 -16 -18 -13 -17 -14 13 -8 22 5 32 3 32 -6 0 -7 7
-10 16 -6 9 4 13 2 8 -5 -4 -6 0 -15 7 -20 11 -6 11 -11 1 -21 -9 -9 -12 -9
-12 3 0 15 -30 49 -43 49 -3 0 -4 -7 -1 -15 7 -18 -7 -20 -25 -2 -11 10 -12 8
-7 -9 5 -15 -2 -30 -24 -54 -16 -18 -30 -35 -30 -39 0 -3 -18 -7 -39 -7 -22
-1 -51 -4 -66 -8 -19 -5 -25 -4 -19 5 4 7 0 17 -8 23 -8 6 -24 32 -37 59 -13
26 -27 47 -32 47 -5 0 -9 5 -9 11 0 5 5 7 12 3 7 -4 8 -3 4 5 -4 6 -11 9 -16
6 -4 -3 -31 25 -58 62 -28 38 -62 79 -76 92 -21 20 -24 27 -13 40 10 14 10 14
-4 3 -14 -10 -22 -7 -55 23 -38 35 -39 44 -4 25 13 -7 28 -7 46 0 21 8 31 7
44 -5 11 -10 20 -12 24 -6 6 9 30 8 111 -3 16 -3 35 -1 41 5 12 9 109 7 120
-3 3 -4 21 -4 39 -1 18 3 35 0 39 -5 4 -6 13 -9 21 -5 9 3 15 -1 15 -11 0 -9
5 -16 11 -16 7 0 9 10 5 26 -5 19 -3 25 6 22 7 -3 14 -10 14 -16 1 -7 2 -19 3
-27 1 -13 5 -14 23 -4 20 11 20 13 5 24 -27 19 -20 25 11 9 37 -19 52 -18 52
5 0 14 -5 18 -19 14 -23 -6 -38 15 -17 23 8 3 12 12 9 20 -3 8 1 14 11 14 20
0 21 16 2 23 -16 6 -27 108 -13 118 5 4 4 16 -2 28 -10 18 -9 21 8 21 17 0 19
4 12 23 -5 13 -15 21 -26 19 -14 -3 -16 1 -11 22 3 14 9 47 13 74 3 26 10 52
15 59 6 7 4 14 -3 19 -7 4 -15 2 -17 -4 -2 -7 -8 -12 -14 -12 -6 0 -3 9 7 20
10 11 24 20 32 20 9 0 13 16 13 60 0 47 -3 60 -15 60 -8 0 -16 3 -16 8 -8 53
-7 60 14 67 21 6 21 7 3 14 -15 6 -16 9 -5 13 19 7 25 118 8 150 -9 16 -9 23
0 26 18 6 13 33 -6 30 -13 -2 -19 5 -21 25 -3 22 1 27 17 27 23 0 26 7 12 29
-5 8 -14 10 -21 6 -9 -5 -11 -4 -6 3 4 7 13 12 20 12 10 0 13 31 14 126 1 117
0 126 -18 131 -11 3 -17 9 -15 14 3 4 12 6 21 2 22 -8 15 57 -8 79 -14 12 -16
17 -6 21 10 4 10 8 -2 17 -12 9 -11 10 7 5 l23 -6 0 640 0 641 -757 -2 c-417
-2 -685 -4 -595 -6 l162 -2 0 -115 0 -114 -107 38 c-188 67 -303 118 -303 133
0 5 -4 7 -9 4 -5 -3 -32 7 -61 23 l-52 29 98 1 c54 1 100 4 102 6 3 2 -111 4
-253 5 l-257 0 7 -40 c6 -36 5 -40 -14 -40 -11 0 -55 18 -98 40 -42 22 -82 39
-87 37 -10 -3 92 -120 143 -164 l26 -23 -22 -19 c-31 -26 -233 -96 -323 -111
-156 -27 -283 -10 -412 53 -38 18 -68 32 -68 30 0 -18 57 -109 94 -150 72 -79
85 -74 -187 -74 -134 -1 -185 16 -198 64 -4 14 -6 110 -6 212 l2 185 -114 0
c-90 0 -111 -3 -103 -13z m2968 -6 c1 -1 4 -8 8 -16 7 -20 -3 -45 -20 -45 -8
0 -11 6 -8 15 5 11 2 13 -12 8 -14 -5 -16 -3 -11 11 4 10 3 15 -3 11 -11 -7
-10 -55 2 -71 5 -7 3 -14 -7 -17 -8 -4 -12 -13 -9 -22 4 -10 0 -15 -15 -15
-12 0 -21 -4 -21 -10 0 -5 7 -7 16 -3 14 5 16 2 10 -20 -6 -27 8 -39 17 -14 2
7 8 8 13 3 5 -5 5 -10 -1 -12 -6 -3 -10 -32 -8 -72 5 -156 5 -180 -1 -190 -3
-6 -2 -13 4 -17 15 -9 13 -85 -2 -85 -9 0 -9 -3 -2 -8 20 -13 38 -72 23 -72
-11 0 -119 -113 -133 -139 -5 -9 -22 -30 -39 -48 l-30 -32 -34 77 c-32 75
-122 232 -150 262 -44 48 -143 204 -138 218 3 7 1 11 -4 8 -9 -6 -55 53 -47
61 2 3 -4 15 -15 26 -11 12 -17 27 -14 35 2 7 1 11 -4 8 -9 -6 -26 40 -22 62
1 6 -2 12 -7 12 -6 0 -13 7 -16 16 -4 10 -2 13 7 9 6 -4 4 0 -5 7 -9 8 -20 27
-24 42 l-7 27 354 -5 c195 -3 355 -5 355 -5z m34 -12 c0 -11 -4 -17 -10 -14
-5 3 -10 13 -10 21 0 8 5 14 10 14 6 0 10 -9 10 -21z m60 11 c0 -5 -2 -10 -4
-10 -3 0 -8 5 -11 10 -3 6 -1 10 4 10 6 0 11 -4 11 -10z m127 -22 c-3 -8 -6
-5 -6 6 -1 11 2 17 5 13 3 -3 4 -12 1 -19z m-154 -13 c-12 -32 -23 -14 -14 23
1 2 5 1 11 -3 5 -3 7 -12 3 -20z m32 -15 c3 -5 1 -10 -4 -10 -6 0 -11 5 -11
10 0 6 2 10 4 10 3 0 8 -4 11 -10z m-2298 -504 c10 -10 -20 -46 -119 -142
-155 -153 -215 -200 -311 -244 -34 -16 -76 -32 -94 -36 l-31 -6 -2 174 c0 98
4 187 9 202 10 25 23 34 86 53 29 9 453 8 462 -1z m2169 -235 c-3 -25 -7 -57
-10 -70 -3 -14 -2 -29 3 -35 6 -7 5 -30 -1 -58 -10 -41 -9 -50 6 -67 13 -14
14 -20 4 -25 -7 -3 -31 -17 -53 -30 -43 -27 -95 -56 -95 -53 0 10 35 165 46
207 20 70 57 164 67 168 4 2 5 7 2 12 -3 4 4 6 15 3 17 -5 19 -12 16 -52z
m-2654 -382 c29 -12 98 -31 152 -43 l99 -23 -43 -47 c-24 -25 -66 -61 -93 -79
-82 -53 -8 -43 136 18 11 5 17 3 17 -6 0 -28 -17 -39 -66 -45 -27 -4 -52 -12
-56 -18 -4 -6 -8 -66 -8 -133 l0 -122 -37 -30 c-21 -17 -61 -41 -90 -53 -51
-21 -61 -38 -23 -38 17 0 18 -3 8 -31 -6 -17 -8 -48 -5 -70 4 -33 2 -39 -13
-39 -41 0 -43 14 -47 405 -2 237 1 375 7 375 5 0 33 -9 62 -21z m926 -30 c26
14 35 14 26 0 -5 -8 1 -10 18 -6 25 7 26 5 32 -61 4 -37 9 -79 12 -94 l6 -28
-136 0 -136 0 0 35 c0 47 30 115 51 115 9 0 22 7 29 15 7 9 15 13 18 11 2 -3
14 1 25 9 15 10 23 11 28 4 5 -8 12 -8 27 0z m1842 -39 c11 0 20 -6 21 -12 1
-7 5 -2 9 12 l8 25 7 -22 c7 -24 27 -33 23 -11 -3 13 23 18 32 7 10 -12 59
-19 65 -9 6 10 45 14 45 4 0 -3 -7 -12 -15 -21 -28 -28 1 -78 38 -67 26 8 89
-5 81 -17 -4 -7 -10 -6 -19 1 -18 15 -31 -6 -15 -25 17 -20 -8 -31 -28 -11
-11 10 -12 16 -4 16 7 0 12 7 12 16 0 9 -7 14 -17 12 -10 -2 -18 -11 -18 -21
0 -10 -7 -22 -15 -27 -10 -7 -11 -10 -2 -10 6 0 12 -9 12 -20 0 -14 -7 -20
-22 -20 -21 0 -21 1 -3 13 17 13 16 14 -6 12 -14 -2 -31 6 -41 19 l-18 21 0
-22 c0 -12 6 -24 13 -26 6 -3 0 -6 -15 -6 -27 -1 -41 -21 -15 -21 9 0 8 -3 -2
-9 -7 -5 -10 -14 -7 -20 4 -6 2 -11 -3 -11 -6 0 -11 18 -11 39 0 22 -4 42 -9
45 -5 4 -7 -11 -4 -34 3 -22 2 -41 -3 -41 -42 -6 -56 -4 -61 8 -4 11 -8 10
-18 -4 -11 -16 -23 -18 -79 -13 -42 3 -66 2 -66 -5 0 -5 -5 -3 -10 5 -7 12
-13 13 -27 4 -25 -16 -62 2 -56 27 3 10 9 16 14 13 5 -3 9 2 9 10 0 24 22 66
31 60 5 -3 9 2 9 11 0 25 72 136 85 132 6 -3 22 1 36 8 20 11 25 11 32 -1 4
-8 17 -14 27 -14z m280 -24 c0 -2 -7 -6 -15 -10 -8 -3 -15 -1 -15 4 0 6 7 10
15 10 8 0 15 -2 15 -4z m0 -30 c0 -3 -4 -8 -10 -11 -5 -3 -10 -1 -10 4 0 6 5
11 10 11 6 0 10 -2 10 -4z m1 -163 c-12 -8 -31 -13 -44 -10 -21 3 -21 4 -2 11
11 4 27 11 35 16 24 13 33 -1 11 -17z m19 -23 c0 -5 -4 -10 -10 -10 -5 0 -10
5 -10 10 0 6 5 10 10 10 6 0 10 -4 10 -10z m-1980 -40 c-14 -3 -36 -4 -50 -1
l-25 5 25 6 c14 3 36 4 50 1 l25 -5 -25 -6z m84 5 c3 -8 1 -15 -4 -15 -6 0
-10 7 -10 15 0 8 2 15 4 15 2 0 6 -7 10 -15z m66 6 c0 -12 -39 -21 -45 -11 -3
5 5 11 17 13 13 2 24 5 26 6 1 0 2 -3 2 -8z m29 -68 c-1 -44 -3 -51 -8 -28 -6
29 -3 85 5 85 2 0 3 -26 3 -57z m-264 38 c3 -5 1 -12 -5 -16 -5 -3 -10 1 -10
9 0 18 6 21 15 7z m34 -23 c9 -25 -6 -66 -19 -52 -8 9 -2 74 6 74 3 0 8 -10
13 -22z m203 -15 c-4 -30 -6 -34 -12 -18 -7 21 -2 55 9 55 4 0 5 -17 3 -37z
m-162 -3 c0 -16 -4 -30 -10 -30 -5 0 -10 14 -10 30 0 17 5 30 10 30 6 0 10
-13 10 -30z m26 -28 c-12 -11 -17 7 -9 34 l8 29 3 -28 c2 -16 1 -31 -2 -35z
m54 41 c0 18 17 22 39 8 9 -6 11 -16 5 -32 -8 -24 -8 -24 -15 6 l-7 30 -1 -27
c-1 -29 -15 -37 -25 -15 -5 10 -7 10 -12 0 -9 -21 -24 -15 -24 10 0 33 12 42
27 21 12 -16 13 -17 13 -1z m1104 -28 c21 -42 34 -177 22 -237 -3 -18 -30 -63
-59 -99 -28 -36 -58 -75 -65 -85 -10 -16 -12 -8 -6 51 4 54 10 74 26 86 23 18
27 60 13 142 -6 38 -5 51 6 58 11 7 11 11 1 17 -18 12 -4 42 19 42 11 0 21 -9
23 -22 3 -13 7 -32 9 -43 3 -11 5 -5 6 14 1 36 -22 71 -46 71 -7 0 -13 11 -13
26 0 41 40 28 64 -21z m-1262 0 c-2 -14 -6 -25 -8 -25 -2 0 -4 11 -4 25 0 14
4 25 9 25 4 0 6 -11 3 -25z m153 -192 c17 -37 32 -71 33 -75 2 -5 -36 -7 -85
-4 -48 2 -98 5 -110 5 -22 1 -23 5 -23 71 l0 70 78 0 78 0 29 -67z m-1019 -9
c21 -15 66 -49 100 -76 97 -78 125 -128 89 -158 -19 -16 -34 -5 -17 12 17 17
15 53 -3 68 -18 15 -19 7 -4 -22 9 -16 7 -24 -5 -37 -15 -15 -19 -14 -44 2
-50 31 -154 78 -165 74 -7 -2 11 -11 38 -21 71 -24 258 -156 270 -190 11 -32
-2 -59 -31 -65 -18 -3 -18 -3 0 18 16 17 18 27 10 48 -5 14 -16 28 -24 31 -12
4 -13 2 -2 -9 17 -18 15 -58 -4 -66 -21 -8 -111 30 -201 84 -40 24 -80 46 -90
49 -37 12 115 -78 197 -118 88 -42 120 -64 120 -82 0 -6 -7 0 -16 12 -8 12
-22 22 -31 22 -14 0 -12 -4 6 -21 17 -16 20 -24 10 -35 -6 -8 -21 -14 -33 -15
-20 0 -20 -1 -1 -9 19 -7 18 -9 -8 -19 -49 -19 -91 -13 -132 19 -21 17 -38 30
-39 30 0 0 -1 -16 -1 -35 0 -19 3 -35 8 -35 4 0 7 10 7 23 1 20 2 20 11 4 14
-24 -12 -64 -47 -73 -36 -9 -108 2 -161 26 -43 19 -47 19 -58 3 -15 -20 1 -67
18 -56 6 3 7 1 3 -5 -3 -6 -2 -13 2 -16 5 -3 15 -39 23 -81 7 -44 21 -84 31
-95 11 -11 16 -20 13 -20 -8 0 27 -63 40 -72 6 -5 6 -8 -1 -8 -21 0 -66 65
-109 155 -24 50 -57 108 -75 130 -47 59 -60 89 -60 139 0 39 6 52 36 86 29 32
43 40 71 40 19 0 43 -5 54 -10 10 -6 19 -8 19 -5 0 3 -16 13 -35 21 -44 18
-46 50 -7 96 16 18 34 47 41 65 13 33 51 53 97 53 13 0 24 4 24 9 0 10 -30 25
-45 22 -5 -1 -4 3 3 10 6 7 12 18 12 24 0 5 -4 3 -10 -5 -12 -20 -21 -8 -22
31 -1 24 6 38 28 56 37 29 52 29 100 -3z m2964 -334 c0 -11 -7 -20 -15 -20
-15 0 -21 21 -8 33 12 13 23 7 23 -13z m-990 -170 c6 -11 16 -20 21 -20 7 0 9
-10 5 -26 -4 -14 -3 -23 1 -21 4 3 8 -10 8 -28 l0 -32 -50 52 c-27 29 -57 54
-65 57 -13 4 -13 11 -2 52 7 26 20 64 29 84 l16 37 13 -67 c7 -37 18 -77 24
-88z m41 104 c-5 -16 -10 -21 -10 -12 -1 18 10 51 15 45 2 -1 -1 -16 -5 -33z
m-486 -44 c44 -87 86 -213 75 -224 -13 -13 -115 37 -124 60 -5 13 15 214 21
214 1 0 14 -22 28 -50z m495 -26 c0 -24 -1 -25 -17 -8 -13 13 -14 19 -5 22 7
2 9 9 6 14 -4 7 -2 8 4 4 7 -4 12 -18 12 -32z m-1400 16 c0 -14 -45 -23 -75
-16 -40 10 -29 21 25 24 29 1 50 -2 50 -8z m160 -5 c0 -12 -13 -15 -55 -15
-51 0 -65 7 -48 23 3 4 28 7 55 7 36 0 48 -4 48 -15z m642 -80 c16 -28 33 -59
39 -70 5 -11 34 -33 62 -49 88 -49 97 -61 97 -130 0 -69 -33 -234 -52 -265 -7
-11 -35 -32 -62 -47 -67 -37 -189 -43 -254 -14 -23 11 -45 26 -48 34 -15 40
91 176 173 221 30 17 55 34 54 38 0 4 -1 17 -1 30 0 13 -9 33 -20 45 -11 12
-20 25 -20 29 0 4 -16 18 -34 30 -29 18 -36 30 -42 69 -11 76 22 138 37 68 5
-24 7 -20 8 19 1 40 4 48 18 45 10 -2 30 -26 45 -53z m1488 -575 c0 -5 -5 -10
-11 -10 -5 0 -7 5 -4 10 3 6 8 10 11 10 2 0 4 -4 4 -10z m-56 -96 c9 -24 7
-28 -9 -14 -17 14 -20 30 -6 30 5 0 12 -7 15 -16z m-1844 -46 c0 -2 -7 -23
-14 -48 l-15 -45 0 48 c-1 35 3 47 14 47 8 0 15 -1 15 -2z m1830 -8 c0 -5 -4
-10 -9 -10 -6 0 -13 5 -16 10 -3 6 1 10 9 10 9 0 16 -4 16 -10z m-1754 -20
c19 0 29 -8 40 -37 14 -33 13 -91 -3 -116 -5 -9 -93 138 -93 155 0 6 7 7 16 4
9 -3 27 -6 40 -6z m1647 -4 c4 -10 1 -13 -8 -9 -8 3 -12 9 -9 14 7 12 11 11
17 -5z m-33 -15 c0 -5 -11 -8 -25 -8 -14 0 -28 3 -31 8 -3 5 9 9 25 9 17 0 31
-4 31 -9z m140 -1 c8 -5 12 -11 10 -14 -3 -2 -14 2 -24 10 -22 15 -10 19 14 4z
m-60 -31 c0 -5 -4 -9 -10 -9 -5 0 -10 7 -10 16 0 8 5 12 10 9 6 -3 10 -10 10
-16z m-62 -6 c-5 -25 -44 -26 -44 -2 0 13 8 19 24 19 17 0 23 -5 20 -17z m-21
-65 c-3 -7 -5 -2 -5 12 0 14 2 19 5 13 2 -7 2 -19 0 -25z m-1538 -149 c-27
-73 -30 -92 -24 -144 3 -32 13 -75 21 -93 21 -51 18 -62 -16 -62 l-30 0 0 69
c0 75 27 357 37 381 4 10 11 2 24 -26 l19 -41 -31 -84z"/>
<path d="M2920 3921 c0 -5 8 -15 17 -22 14 -12 15 -12 9 0 -5 8 -3 17 5 22 10
6 8 9 -8 9 -13 0 -23 -4 -23 -9z"/>
<path d="M3148 3923 c7 -3 16 -2 19 1 4 3 -2 6 -13 5 -11 0 -14 -3 -6 -6z"/>
<path d="M3779 2629 c11 -13 24 -18 32 -14 9 6 7 12 -6 22 -31 22 -49 16 -26
-8z"/>
<path d="M3741 2624 c0 -11 3 -14 6 -6 3 7 2 16 -1 19 -3 4 -6 -2 -5 -13z"/>
<path d="M3671 2604 c0 -11 3 -14 6 -6 3 7 2 16 -1 19 -3 4 -6 -2 -5 -13z"/>
<path d="M3762 2585 c0 -16 2 -22 5 -12 2 9 2 23 0 30 -3 6 -5 -1 -5 -18z"/>
<path d="M3610 2584 c0 -8 5 -12 10 -9 6 4 8 11 5 16 -9 14 -15 11 -15 -7z"/>
<path d="M3696 2589 c-10 -31 -13 -70 -6 -74 8 -5 23 75 16 83 -3 3 -8 -1 -10
-9z"/>
<path d="M3646 2575 c-3 -8 -1 -15 4 -15 6 0 10 7 10 15 0 8 -2 15 -4 15 -2 0
-6 -7 -10 -15z"/>
<path d="M850 1793 c0 -6 27 -25 60 -42 33 -18 60 -30 60 -27 0 3 -19 15 -42
27 -24 12 -51 28 -60 37 -10 8 -18 11 -18 5z"/>
<path d="M968 1633 c6 -2 18 -2 25 0 6 3 1 5 -13 5 -14 0 -19 -2 -12 -5z"/>
<path d="M3720 840 c0 -5 5 -10 10 -10 6 0 10 5 10 10 0 6 -4 10 -10 10 -5 0
-10 -4 -10 -10z"/>
<path d="M3980 2250 c0 -5 5 -10 11 -10 5 0 7 5 4 10 -3 6 -8 10 -11 10 -2 0
-4 -4 -4 -10z"/>
<path d="M3984 1660 c0 -11 4 -20 8 -20 4 0 8 9 8 20 0 11 -4 20 -8 20 -4 0
-8 -9 -8 -20z"/>
<path d="M2892 1485 c0 -16 2 -22 5 -12 2 9 2 23 0 30 -3 6 -5 -1 -5 -18z"/>
<path d="M2881 1424 c0 -11 3 -14 6 -6 3 7 2 16 -1 19 -3 4 -6 -2 -5 -13z"/>
<path d="M3125 1295 c77 -90 123 -148 164 -208 32 -47 33 -49 14 -69 -16 -19
-14 -18 19 3 31 20 34 25 19 31 -10 3 -35 30 -56 60 -51 70 -166 208 -196 233
-13 11 3 -11 36 -50z"/>
<path d="M3762 1165 c0 -16 2 -22 5 -12 2 9 2 23 0 30 -3 6 -5 -1 -5 -18z"/>
<path d="M3795 1180 c3 -5 8 -10 11 -10 2 0 4 5 4 10 0 6 -5 10 -11 10 -5 0
-7 -4 -4 -10z"/>
<path d="M3920 1172 c0 -7 -11 -12 -24 -12 -36 0 -41 -17 -7 -22 23 -3 31 0
35 16 3 11 3 22 1 25 -3 2 -5 -1 -5 -7z"/>
<path d="M3470 1040 c8 -5 20 -10 25 -10 6 0 3 5 -5 10 -8 5 -19 10 -25 10 -5
0 -3 -5 5 -10z"/>
<path d="M3511 1027 c2 -2 24 -18 49 -36 l45 -33 -39 36 c-22 20 -44 36 -49
36 -6 0 -8 -1 -6 -3z"/>
<path d="M860 1004 c0 -10 5 -26 10 -34 8 -11 9 -7 4 15 -8 37 -14 45 -14 19z"/>
<path d="M970 1009 c-1 -8 -5 -48 -11 -89 -6 -41 -10 -111 -9 -155 1 -90 26
-285 38 -297 4 -4 82 -9 172 -10 l165 -3 7 -74 c4 -40 15 -109 23 -153 22
-115 20 -138 -16 -186 l-31 -42 126 0 c69 0 126 3 126 8 0 4 -13 72 -29 152
-16 80 -33 177 -36 216 l-7 71 39 6 c21 4 121 7 222 6 101 0 186 3 189 6 3 3
-195 6 -439 7 -244 1 -457 2 -474 2 -25 1 -30 6 -37 36 -19 85 -28 294 -18
397 6 58 8 108 5 111 -3 3 -5 -1 -5 -9z"/>
<path d="M3229 953 l-24 -28 28 24 c15 14 27 26 27 28 0 8 -8 1 -31 -24z"/>
<path d="M3775 969 c-10 -15 3 -25 16 -12 7 7 7 13 1 17 -6 3 -14 1 -17 -5z"/>
<path d="M2880 940 c0 -16 2 -30 4 -30 2 0 6 14 8 30 3 17 1 30 -4 30 -4 0 -8
-13 -8 -30z"/>
<path d="M885 918 c4 -13 11 -27 16 -33 5 -5 4 5 -2 23 -12 36 -24 44 -14 10z"/>
<path d="M2810 923 c1 -4 15 -17 32 -28 22 -13 35 -31 40 -55 4 -19 11 -154
14 -300 4 -146 10 -274 15 -285 5 -12 8 35 6 118 -1 75 0 137 3 137 11 -1 48
-37 70 -68 12 -18 40 -95 61 -169 45 -156 106 -290 124 -272 3 3 -11 37 -30
75 -19 38 -35 74 -35 81 0 6 14 16 32 22 118 41 317 203 400 323 67 99 97 195
67 213 -12 8 -49 -23 -49 -41 0 -7 -3 -14 -7 -16 -5 -2 -25 -28 -46 -58 -21
-30 -54 -75 -73 -100 -18 -25 -48 -65 -66 -90 -17 -25 -34 -47 -37 -50 -4 -3
-19 -22 -34 -43 -16 -21 -37 -45 -47 -55 -32 -29 -142 -84 -152 -74 -5 5 -22
58 -39 118 -17 60 -37 119 -45 131 -8 12 -14 27 -14 32 0 5 24 31 52 58 141
130 191 180 205 206 8 16 13 31 11 33 -2 2 -30 -20 -62 -49 -70 -63 -254 -187
-278 -187 -14 0 -18 8 -18 33 0 38 72 131 212 275 44 45 76 82 71 82 -9 0
-138 -135 -229 -242 l-49 -56 -7 109 c-4 60 -13 121 -20 136 -12 26 -78 74
-78 56z"/>
<path d="M916 855 c4 -8 11 -15 16 -15 6 0 5 6 -2 15 -7 8 -14 15 -16 15 -2 0
-1 -7 2 -15z"/>
</g>
</svg>
